<svg width="934" height="156" viewBox="0 0 934 156" fill="none" xmlns="http://www.w3.org/2000/svg">
<path fill-rule="evenodd" clip-rule="evenodd" d="M410.498 563.441C461.931 614.868 545.314 614.868 596.748 563.441L993.406 166.838C1044.85 115.402 1044.85 31.9989 993.406 -19.4377C941.973 -70.8641 858.59 -70.8641 807.156 -19.4377L628.984 158.71C672.809 106.96 670.314 29.3701 621.499 -19.4377C570.065 -70.8641 486.683 -70.8641 435.249 -19.4377L38.5905 377.165C-12.8533 428.602 -12.8533 512.005 38.5906 563.441C90.0242 614.868 173.407 614.868 224.841 563.441L403.013 385.294C359.188 437.043 361.683 514.633 410.498 563.441Z" fill="#63BABA"/>
</svg>
