<svg width="964" height="156" viewBox="0 0 964 156" fill="none" xmlns="http://www.w3.org/2000/svg">
<path fill-rule="evenodd" clip-rule="evenodd" d="M-102.41 117.441C-50.9759 168.867 32.4069 168.867 83.8405 117.441L480.499 -279.162C531.943 -330.598 531.943 -414.001 480.499 -465.438C429.065 -516.864 345.683 -516.864 294.249 -465.438L-102.41 -68.8351C-153.853 -17.3985 -153.853 66.0044 -102.41 117.441ZM342.283 45.6168C393.716 97.0432 477.099 97.0432 528.532 45.6168L925.191 -350.986C976.635 -402.423 976.635 -485.826 925.191 -537.262C873.757 -588.688 790.375 -588.688 738.941 -537.262L342.282 -140.659C290.839 -89.2227 290.839 -5.81978 342.283 45.6168Z" fill="#63BABA"/>
</svg>
